<?xml version="1.0" encoding="UTF-8"?>
<svg id="Capa_2" data-name="Capa 2" xmlns="http://www.w3.org/2000/svg" viewBox="0 0 75.29 62.85">
  <defs>
    <style>
      .cls-1 {
        fill: #877cb6;
      }
    </style>
  </defs>
  <g id="Capa_1-2" data-name="Capa 1">
    <g>
      <path class="cls-1" d="M68.45,17.89c-.55,0-.98,0-1.41,0-10.75,0-21.5,0-32.25-.03-.65,0-1.36-.11-1.93-.4-1.13-.57-1.64-1.96-1.32-3.15,.3-1.12,1.37-1.98,2.65-2,2.09-.04,4.19,0,6.28,0,10.51,0,21.03,0,31.54,0,.54,0,1.13,.05,1.62,.25,1.44,.61,2.01,2.02,1.44,3.65-2.14,6.15-4.3,12.29-6.46,18.44-.93,2.64-1.85,5.29-2.77,7.94-.73,2.08-1.49,2.65-3.65,2.65-11.42,0-22.84,0-34.27-.01-1.92,0-2.84-.68-3.32-2.54-3.08-11.84-6.16-23.68-9.16-35.53-.31-1.24-.78-1.61-2.04-1.57-3.36,.1-6.72,.04-10.08,.03C1.34,5.61-.02,4.39,0,2.69,.02,1.12,1.37,0,3.28,0c4.35,0,8.69,0,13.04,0,2.42,0,3.17,.55,3.77,2.86,3.07,11.84,6.14,23.68,9.16,35.53,.24,.92,.54,1.25,1.55,1.25,9.68-.05,19.37-.03,29.05-.02,.61,0,1.1,.03,1.37-.75,2.35-6.83,4.75-13.64,7.13-20.46,.04-.11,.04-.22,.09-.52Z"/>
      <path class="cls-1" d="M26.74,62.85c-3.38,0-6.11-2.7-6.12-6.08,0-3.35,2.77-6.14,6.1-6.12,3.36,.02,6.13,2.77,6.14,6.11,0,3.34-2.75,6.09-6.12,6.09Z"/>
      <path class="cls-1" d="M69.7,56.81c-.02,3.38-2.74,6.06-6.14,6.03-3.39-.03-6.04-2.73-6.02-6.15,.02-3.39,2.75-6.08,6.14-6.04,3.38,.03,6.04,2.75,6.02,6.16Z"/>
    </g>
  </g>
</svg>